<svg xmlns="http://www.w3.org/2000/svg" width="23.241" height="22.661" viewBox="0 0 23.241 22.661">
  <path id="github" d="M7.774,26.246c0,.094-.108.169-.244.169-.155.014-.262-.061-.262-.169s.108-.169.244-.169S7.774,26.139,7.774,26.246Zm-1.457-.211c-.033.094.061.2.2.23a.22.22,0,0,0,.291-.094c.028-.094-.061-.2-.2-.244A.241.241,0,0,0,6.316,26.036Zm2.071-.08c-.136.033-.23.122-.216.23s.136.155.276.122.23-.122.216-.216S8.523,25.942,8.388,25.956ZM11.471,8A11.236,11.236,0,0,0,0,19.433,11.748,11.748,0,0,0,7.942,30.642c.6.108.811-.262.811-.567s-.014-1.893-.014-2.877c0,0-3.28.7-3.969-1.4,0,0-.534-1.364-1.3-1.715,0,0-1.073-.736.075-.722a2.473,2.473,0,0,1,1.809,1.209,2.477,2.477,0,0,0,3.416.979,2.6,2.6,0,0,1,.75-1.579C6.9,23.683,4.255,23.3,4.255,18.8a3.551,3.551,0,0,1,1.106-2.76,4.427,4.427,0,0,1,.122-3.182c.979-.3,3.233,1.265,3.233,1.265a11.07,11.07,0,0,1,5.885,0s2.254-1.574,3.233-1.265a4.425,4.425,0,0,1,.122,3.182,3.642,3.642,0,0,1,1.209,2.76c0,4.522-2.76,4.883-5.379,5.178a2.771,2.771,0,0,1,.8,2.174c0,1.579-.014,3.533-.014,3.917,0,.3.216.675.811.567a11.639,11.639,0,0,0,7.863-11.2A11.489,11.489,0,0,0,11.471,8ZM4.555,24.161c-.061.047-.047.155.033.244s.183.108.244.047.047-.155-.033-.244S4.615,24.1,4.555,24.161Zm-.506-.38c-.033.061.014.136.108.183a.139.139,0,0,0,.2-.033c.033-.061-.014-.136-.108-.183C4.156,23.721,4.081,23.735,4.049,23.782ZM5.567,25.45c-.075.061-.047.2.061.291.108.108.244.122.3.047s.033-.2-.061-.291C5.768,25.389,5.628,25.375,5.567,25.45Zm-.534-.689c-.075.047-.075.169,0,.276s.2.155.262.108a.214.214,0,0,0,0-.291c-.066-.108-.187-.155-.262-.094Z" transform="translate(0 -8)" fill="#fff"/>
</svg>
