<svg xmlns="http://www.w3.org/2000/svg" width="22.661" height="22.661" viewBox="0 0 22.661 22.661">
  <path id="linkedin" d="M21.042,32H1.614A1.626,1.626,0,0,0,0,33.634V53.027a1.626,1.626,0,0,0,1.614,1.634H21.042a1.63,1.63,0,0,0,1.619-1.634V33.634A1.63,1.63,0,0,0,21.042,32ZM6.849,51.424H3.49V40.609H6.854V51.424ZM5.169,39.132a1.947,1.947,0,1,1,1.947-1.947A1.948,1.948,0,0,1,5.169,39.132ZM19.439,51.424H16.08V46.163c0-1.254-.025-2.868-1.745-2.868-1.75,0-2.018,1.366-2.018,2.777v5.352H8.958V40.609H12.18v1.477h.046a3.538,3.538,0,0,1,3.182-1.745c3.4,0,4.031,2.241,4.031,5.154Z" transform="translate(0 -32)" fill="#fff"/>
</svg>
