<svg xmlns="http://www.w3.org/2000/svg" width="26.88" height="21.831" viewBox="0 0 26.88 21.831">
  <path id="twitter" d="M24.117,53.523c.017.239.017.478.017.716A15.567,15.567,0,0,1,8.46,69.914,15.568,15.568,0,0,1,0,67.44a11.4,11.4,0,0,0,1.33.068A11.033,11.033,0,0,0,8.17,65.155a5.519,5.519,0,0,1-5.151-3.821,6.947,6.947,0,0,0,1.04.085,5.827,5.827,0,0,0,1.45-.188,5.51,5.51,0,0,1-4.418-5.407v-.068a5.548,5.548,0,0,0,2.49.7,5.517,5.517,0,0,1-1.706-7.368,15.659,15.659,0,0,0,11.359,5.765,6.219,6.219,0,0,1-.136-1.262,5.514,5.514,0,0,1,9.534-3.769,10.846,10.846,0,0,0,3.5-1.33,5.494,5.494,0,0,1-2.422,3.036,11.044,11.044,0,0,0,3.172-.853A11.842,11.842,0,0,1,24.117,53.523Z" transform="translate(0 -48.082)" fill="#fff"/>
</svg>
